<svg height="512" viewBox="0 0 30 30" width="512" xmlns="http://www.w3.org/2000/svg"><g id="Layer_2" data-name="Layer 2"><g id="Australia"><circle cx="15" cy="15" fill="#012169" r="15"/><path d="m13.12.13-5.62 5.621-2.19-2.191a15.134 15.134 0 0 0 -1.749 1.75l2.19 2.19-5.621 5.62a15.139 15.139 0 0 0 -.13 1.88h1.749l5.751-5.751 5.751 5.751h1.749v-1.749l-5.751-5.751 5.751-5.751v-1.749a15.139 15.139 0 0 0 -1.88.13z" fill="#fff"/><path d="m9 1.256a14.984 14.984 0 0 0 -3 1.764v1.98h-2.158a14.964 14.964 0 0 0 -2.97 5h5.128v5h3v-5h6v-5h-6z" fill="#fff"/><path d="m15 0c-.415 0-.822.029-1.229.062l-6.854 6.855-2.524-2.524c-.194.2-.371.406-.555.611l3.079 3.079-6.917 6.917h1.166l6.917-6.917 6.917 6.917v-1.167l-6.917-6.916z" fill="#c8102e"/><path d="m8.4 1.546a14.828 14.828 0 0 0 -1.8 1.026v3.428h-3.58a14.984 14.984 0 0 0 -1.764 3h5.344v6h1.8v-6h6.6v-3h-6.6z" fill="#c8102e"/><g fill="#fff"><path d="m7.951 21.85.912.96-.182-1.311 1.319-.115-1.139-.676.733-1.102-1.238.468-.405-1.26-.406 1.26-1.238-.468.733 1.102-1.139.676 1.319.115-.181 1.311z"/><path d="m17.844 14.991.579.61-.115-.833.838-.073-.723-.429.465-.701-.786.298-.258-.8-.257.8-.787-.298.466.701-.723.429.837.073-.115.833z"/><path d="m22.517 9.929.58.609-.116-.833.838-.073-.723-.429.465-.7-.786.298-.258-.801-.257.801-.786-.298.465.7-.723.429.838.073-.116.833z"/><path d="m26.671 13.745.58.61-.116-.833.838-.073-.723-.429.465-.701-.786.298-.258-.801-.257.801-.786-.298.465.701-.723.429.838.073-.116.833z"/><path d="m22.517 22.39.58.61-.116-.833.838-.073-.723-.429.465-.7-.786.297-.258-.8-.257.8-.786-.297.465.7-.723.429.838.073-.116.833z"/><path d="m24.387 16.691.457.284-.128-.523.411-.348-.537-.039-.203-.499-.204.499-.537.039.412.348-.129.523z"/></g></g></g></svg>