<svg height="512" viewBox="0 0 30 30" width="512" xmlns="http://www.w3.org/2000/svg"><g id="Layer_2" data-name="Layer 2"><g id="USA"><circle cx="15" cy="15" fill="#b22234" r="15"/><path d="m.058 13.846h29.884a15 15 0 0 0 -.359-2.308h-29.166a15 15 0 0 0 -.359 2.308z" fill="#fff"/><path d="m7.031 27.692h15.938a15.031 15.031 0 0 0 2.839-2.307h-21.616a15.031 15.031 0 0 0 2.839 2.307z" fill="#fff"/><path d="m.417 18.462h29.166a15 15 0 0 0 .359-2.308h-29.884a15 15 0 0 0 .359 2.308z" fill="#fff"/><path d="m2.374 23.077h25.252a14.862 14.862 0 0 0 1.221-2.308h-27.694a14.862 14.862 0 0 0 1.221 2.308z" fill="#fff"/><path d="m1.153 9.231h27.694a14.862 14.862 0 0 0 -1.221-2.308h-25.252a14.862 14.862 0 0 0 -1.221 2.308z" fill="#fff"/><path d="m4.192 4.615h21.616a15.005 15.005 0 0 0 -2.84-2.307h-15.936a15.005 15.005 0 0 0 -2.84 2.307z" fill="#fff"/><path d="m0 15c0 .39.029.773.058 1.156h14.942v-16.156a15 15 0 0 0 -15 15z" fill="#3c3b6e"/><g fill="#fff"><path d="m.14 13.055v-.029l-.012.008z"/><path d="m11.2 8.771-.208.637h-.67l.542.395-.207.637.543-.394.542.394-.207-.637.542-.395h-.67z"/><path d="m11.2 5.539-.208.638h-.67l.542.394-.207.638.543-.394.542.394-.207-.638.542-.394h-.67z"/><path d="m11.407 12.64-.207-.638-.208.638h-.67l.542.394-.207.638.543-.395.542.395-.207-.638.542-.394z"/><path d="m11.2 2.308-.208.638h-.67l.542.394-.207.638.543-.394.542.394-.207-.638.542-.394h-.67z"/><path d="m13.307 14.255-.207-.638-.207.638h-.671l.542.394-.207.638.543-.394.542.394-.207-.638.543-.394z"/><path d="m13.1 10.386-.207.638h-.671l.542.394-.207.638.543-.394.542.394-.207-.638.543-.394h-.671z"/><path d="m13.1 3.924-.207.638h-.671l.542.394-.207.638.543-.395.542.395-.207-.638.543-.394h-.671z"/><path d="m13.1 7.155-.207.638h-.671l.542.394-.207.638.543-.394.542.394-.207-.638.543-.394h-.671z"/><path d="m13.1.692-.207.638h-.671l.542.395-.207.637.543-.394.542.394-.207-.637.543-.395h-.671z"/><path d="m9.506 14.255-.207-.638-.207.638h-.671l.543.394-.207.638.542-.394.543.394-.207-.638.542-.394z"/><path d="m9.299 10.386-.207.638h-.671l.543.394-.207.638.542-.394.543.394-.207-.638.542-.394h-.671z"/><path d="m9.299 3.924-.207.638h-.671l.543.394-.207.638.542-.395.543.395-.207-.638.542-.394h-.671z"/><path d="m9.299 7.155-.207.638h-.671l.543.394-.207.638.542-.394.543.394-.207-.638.542-.394h-.671z"/><path d="m8.757 2.362.543-.394.543.394-.207-.637.542-.395h-.672l-.08-.248c-.1.038-.194.068-.289.108l-.045.14h-.245c-.087.039-.17.083-.256.124l.373.271z"/><path d="m7.399 8.771-.207.637h-.671l.543.395-.208.637.543-.394.543.394-.208-.637.543-.395h-.671z"/><path d="m7.399 5.539-.207.638h-.671l.543.394-.208.638.543-.394.543.394-.208-.638.543-.394h-.671z"/><path d="m7.606 12.64-.207-.638-.207.638h-.671l.543.394-.208.638.543-.395.543.395-.208-.638.543-.394z"/><path d="m7.399 2.308-.207.638h-.671l.543.394-.208.638.543-.394.543.394-.208-.638.543-.394h-.671z"/><path d="m5.706 14.255-.207-.638-.207.638h-.671l.542.394-.207.638.543-.394.542.394-.207-.638.543-.394z"/><path d="m5.499 10.386-.207.638h-.671l.542.394-.207.638.543-.394.542.394-.207-.638.543-.394h-.671z"/><path d="m5.499 3.924-.207.638h-.671l.542.394-.207.638.543-.395.542.395-.207-.638.543-.394h-.671z"/><path d="m5.499 7.155-.207.638h-.671l.542.394-.207.638.543-.394.542.394-.207-.638.543-.394h-.671z"/><path d="m3.599 8.771-.208.637h-.67l.542.395-.207.637.543-.394.542.394-.207-.637.542-.395h-.67z"/><path d="m3.056 7.209.544-.394.542.394-.207-.638.542-.394h-.67l-.207-.638-.208.638h-.5c-.019.027-.04.052-.059.079l.434.315z"/><path d="m3.806 12.64-.207-.638-.208.638h-.67l.542.394-.207.638.543-.395.542.395-.207-.638.542-.394z"/><path d="m1.905 14.255-.207-.638-.207.638h-.671l.543.394-.207.638.542-.394.543.394-.207-.638.542-.394z"/><path d="m1.698 10.386-.207.638h-.671l.543.394-.207.638.542-.394.543.394-.207-.638.542-.394h-.671z"/><path d="m2.241 8.825-.207-.638.542-.394h-.671l-.021-.065c-.16.289-.3.589-.443.89l.259-.187z"/><path d="m.14 13.055c-.018.143-.049.281-.063.425l.264.192z"/><path d="m.676 12.64h-.476c-.021.128-.042.256-.059.386z"/></g></g></g></svg>